<svg preserveAspectRatio="none" width="100%" height="100%" overflow="visible" style="display: block;" viewBox="0 0 400 400" fill="none" xmlns="http://www.w3.org/2000/svg">
<g id="Color Ratio Circles">
<path id="Ellipse 6" d="M358.796 284.757C368.541 289.959 372.304 302.143 366.157 311.32C345.102 342.747 315.476 367.681 280.607 383.037C239.613 401.09 193.745 404.859 150.353 393.74C106.962 382.621 68.5596 357.257 41.2998 321.714C18.1129 291.481 4.12959 255.371 0.783772 217.692C-0.193203 206.689 8.96678 197.817 20.0118 197.943V197.943C31.0567 198.069 39.7788 207.158 41.0306 218.133C44.3044 246.835 55.3081 274.251 73.0398 297.371C94.8477 325.806 125.57 346.097 160.283 354.992C194.996 363.887 231.69 360.872 264.485 346.43C291.151 334.687 313.984 315.941 330.658 292.351C337.033 283.331 349.052 279.556 358.796 284.757V284.757Z" fill="var(--fill-0, #F0F0F0)"/>
<path id="Ellipse 7" d="M21.0388 180.689C10.0569 179.504 2.01424 169.608 4.28964 158.799C10.1939 130.752 22.0608 104.296 39.0811 81.2348C45.6404 72.3475 58.3799 71.7728 66.568 79.1865V79.1865C74.756 86.6003 75.2649 99.1873 68.9299 108.236C57.3242 124.812 48.9669 143.444 44.3046 163.135C41.7597 173.884 32.0208 181.874 21.0388 180.689V180.689Z" fill="var(--fill-0, #401298)"/>
<path id="Ellipse 8" d="M85.2369 61.3298C78.1945 52.8203 79.3347 40.1191 88.5048 33.9614C104.704 23.0838 122.438 14.6148 141.155 8.85275C166.257 1.12512 192.635 -1.58266 218.783 0.883999C244.932 3.35066 270.338 10.9435 293.552 23.2289C310.861 32.3895 326.699 44.0254 340.578 57.7404C348.435 65.5043 347.18 78.1946 338.67 85.237V85.237C330.161 92.2795 317.631 90.9816 309.582 83.4166C299.186 73.6441 287.506 65.2854 274.842 58.5831C256.27 48.7548 235.945 42.6805 215.027 40.7072C194.108 38.7339 173.006 40.9001 152.924 47.0822C139.23 51.298 126.193 57.3251 114.152 64.9809C104.831 70.9075 92.2794 69.8393 85.2369 61.3298V61.3298Z" fill="var(--fill-0, #3559C7)"/>
<path id="Ellipse 9" d="M349.126 99.196C358.277 93.0102 370.808 95.3744 376.05 105.097C388.937 129.004 396.854 155.35 399.237 182.545C401.619 209.739 398.404 237.06 389.87 262.844C386.399 273.33 374.47 277.837 364.383 273.337V273.337C354.295 268.837 349.898 257.032 353.105 246.462C359.022 226.965 361.178 206.455 359.389 186.036C357.6 165.616 351.911 145.794 342.694 127.622C337.697 117.771 339.975 105.382 349.126 99.196V99.196Z" fill="var(--fill-0, #6AC8EA)"/>
</g>
</svg>
