<svg width="247" height="240" viewBox="0 0 247 240" fill="none" xmlns="http://www.w3.org/2000/svg">
<path d="M10.9277 34.5C10.9277 21.2452 21.6729 10.5 34.9277 10.5H211.928C225.183 10.5 235.928 21.2452 235.928 34.5V211.5C235.928 224.755 225.183 235.5 211.928 235.5H34.9277C21.6729 235.5 10.9277 224.755 10.9277 211.5V34.5Z" fill="#401298"/>
<path d="M69.2539 56.5516C83.2598 56.2228 97.8454 56.6311 111.937 56.4895C122.056 56.6475 132.125 56.0681 142.214 57.0307C160.914 58.815 177.132 71.4773 183.674 88.455C187.953 99.5604 187.512 114.399 182.368 125.093C176.191 137.933 166.221 146.462 152.653 151.201C139.939 154.949 132.839 153.764 120.154 154.056C117.997 155.385 109.055 164.448 106.635 166.82C101.134 172.211 94.9119 178.013 89.5553 183.479C82.9403 183.463 75.8208 183.607 69.2493 183.377C69.0634 168.467 69.2326 153.214 69.2322 138.282L69.2539 56.5516Z" fill="#FEFEFE"/>
<path d="M89.9304 76.4127L123.753 76.4048C128.495 76.4057 138.106 75.9499 142.396 76.8724C173.602 83.582 174.485 125.646 143.058 133.474C133.558 134.963 121.341 133.784 111.411 134.313C109.879 135.523 107.112 138.475 105.628 139.989C100.769 144.946 94.1368 150.438 89.9258 155.703L89.9304 76.4127Z" fill="#401298"/>
</svg>
