<svg preserveAspectRatio="none" width="100%" height="100%" overflow="visible" style="display: block;" viewBox="0 0 18 16" fill="none" xmlns="http://www.w3.org/2000/svg">
<g id="cat">
<path id="Primary" d="M14.2375 5.04955C14.2375 6.04939 13.6954 6.92057 12.8875 7.38674V13.1495H10.8625V10.0678L9.27625 11.1245H10.1875V13.1495H4.1125V6.06205C4.1125 5.50307 3.65898 5.04955 3.1 5.04955H2.7625V4.37455H3.1C4.03234 4.37455 4.7875 5.12971 4.7875 6.06205V8.51103C5.61859 7.01127 7.14578 5.94814 8.93031 5.75619C8.86914 5.53049 8.8375 5.29424 8.8375 5.04955V1.30963C9.02945 1.4615 9.74242 2.03314 10.9806 3.02455H12.0944C13.3326 2.03314 14.0477 1.46361 14.2375 1.30963V5.04955ZM9.20453 6.4101C6.73867 6.5683 4.7875 8.61861 4.7875 11.1245V12.4745H9.5125V11.7995H7.825V10.6183C7.825 10.1521 7.44742 9.77455 6.98125 9.77455H6.475V9.09955H6.98125C7.82078 9.09955 8.5 9.77877 8.5 10.6183V10.8313L11.0123 9.1565L11.5375 8.80635V12.4745H12.2125V7.66518C11.9973 7.72002 11.7695 7.74955 11.5375 7.74955C10.5419 7.74955 9.67281 7.21166 9.20453 6.4101ZM12.4234 3.62572L12.3306 3.69955H10.7444L10.6516 3.62572L9.5125 2.71447V5.04955C9.5125 6.16752 10.4195 7.07455 11.5375 7.07455C12.6555 7.07455 13.5625 6.16752 13.5625 5.04955V2.71447L12.4234 3.62572ZM10.6938 5.47143C10.5819 5.47143 10.4746 5.42698 10.3954 5.34786C10.3163 5.26874 10.2719 5.16144 10.2719 5.04955C10.2719 4.93766 10.3163 4.83036 10.3954 4.75124C10.4746 4.67212 10.5819 4.62768 10.6938 4.62768C10.8056 4.62768 10.9129 4.67212 10.9921 4.75124C11.0712 4.83036 11.1156 4.93766 11.1156 5.04955C11.1156 5.16144 11.0712 5.26874 10.9921 5.34786C10.9129 5.42698 10.8056 5.47143 10.6938 5.47143ZM12.3813 5.47143C12.2694 5.47143 12.1621 5.42698 12.0829 5.34786C12.0038 5.26874 11.9594 5.16144 11.9594 5.04955C11.9594 4.93766 12.0038 4.83036 12.0829 4.75124C12.1621 4.67212 12.2694 4.62768 12.3813 4.62768C12.4931 4.62768 12.6004 4.67212 12.6796 4.75124C12.7587 4.83036 12.8031 4.93766 12.8031 5.04955C12.8031 5.16144 12.7587 5.26874 12.6796 5.34786C12.6004 5.42698 12.4931 5.47143 12.3813 5.47143Z" fill="var(--fill-0, #374151)"/>
</g>
</svg>
