<svg preserveAspectRatio="none" width="100%" height="100%" overflow="visible" style="display: block;" viewBox="0 0 18 16" fill="none" xmlns="http://www.w3.org/2000/svg">
<g id="dog">
<path id="Primary" d="M10.943 1.19766C10.8891 1.45312 10.8445 1.67578 10.8047 1.86328H13.2797L14.0297 2.61328H15.75V4.11328C15.75 5.35547 14.7422 6.36328 13.5 6.36328H12.6445L12.375 7.17422V13.8633H9.375V10.6875C8.53594 11.0414 7.58906 11.0414 6.75 10.6875V13.8633H3.75V6.32578C2.89453 6.15234 2.25 5.39531 2.25 4.48828V4.11328H3V4.48828C3 5.10938 3.50391 5.61328 4.125 5.61328H9.25781L10.132 1.41094L10.2094 1.04297L10.943 1.19531V1.19766ZM4.5 13.1133H6V9.53672C6.36094 9.69609 6.69375 9.84609 6.99609 9.97969C7.67578 10.282 8.44922 10.282 9.12891 9.97969C9.43125 9.84375 9.76406 9.69609 10.125 9.53672V13.1133H11.625V7.22578L9.60938 6.36328H4.5V13.1133ZM10.0008 5.71406L11.8125 6.48984C11.9719 6.01641 12.068 5.72344 12.1055 5.61328H13.5C14.3273 5.61328 15 4.94062 15 4.11328V3.36328H13.7203L12.9703 2.61328H10.65L10.0031 5.71406H10.0008ZM12.375 4.20703C12.2507 4.20703 12.1315 4.15765 12.0435 4.06974C11.9556 3.98183 11.9062 3.8626 11.9062 3.73828C11.9062 3.61396 11.9556 3.49473 12.0435 3.40682C12.1315 3.31892 12.2507 3.26953 12.375 3.26953C12.4993 3.26953 12.6185 3.31892 12.7065 3.40682C12.7944 3.49473 12.8438 3.61396 12.8438 3.73828C12.8438 3.8626 12.7944 3.98183 12.7065 4.06974C12.6185 4.15765 12.4993 4.20703 12.375 4.20703Z" fill="var(--fill-0, #374151)"/>
</g>
</svg>
