<svg preserveAspectRatio="none" width="100%" height="100%" overflow="visible" style="display: block;" viewBox="0 0 40 40" fill="none" xmlns="http://www.w3.org/2000/svg">
<g id="Icon Container">
<g id="Subtract">
<path d="M11.0309 9.77861C13.189 9.72651 15.4367 9.79128 17.608 9.76884C19.1672 9.79387 20.7185 9.70226 22.2731 9.85478C25.1546 10.1376 27.6546 12.1443 28.6627 14.8352C29.322 16.5954 29.2532 18.947 28.4606 20.6419C27.5088 22.6769 25.9731 24.0293 23.8824 24.7806C21.9233 25.3746 20.8284 25.1865 18.8736 25.2327C18.5407 25.4441 17.1635 26.8803 16.7906 27.2561C15.9431 28.1105 14.9841 29.0296 14.1588 29.8958C13.1395 29.8933 12.0425 29.9167 11.0299 29.8802C11.0012 27.517 11.027 25.0995 11.027 22.7327L11.0309 9.77861ZM22.3014 12.9993C21.6403 12.8531 20.1591 12.9252 19.4283 12.9251L14.2164 12.9261L14.2154 25.4935C14.8643 24.6591 15.8866 23.7888 16.6354 23.0032C16.864 22.7633 17.2909 22.2956 17.527 22.1038C19.0569 22.0201 20.9391 22.2059 22.4029 21.97C27.2456 20.7294 27.11 14.0629 22.3014 12.9993Z" fill="var(--fill-0, #1F2A37)"/>
<path d="M11.0309 9.77861C13.189 9.72651 15.4367 9.79128 17.608 9.76884C19.1672 9.79387 20.7185 9.70226 22.2731 9.85478C25.1546 10.1376 27.6546 12.1443 28.6627 14.8352C29.322 16.5954 29.2532 18.947 28.4606 20.6419C27.5088 22.6769 25.9731 24.0293 23.8824 24.7806C21.9233 25.3746 20.8284 25.1865 18.8736 25.2327C18.5407 25.4441 17.1635 26.8803 16.7906 27.2561C15.9431 28.1105 14.9841 29.0296 14.1588 29.8958C13.1395 29.8933 12.0425 29.9167 11.0299 29.8802C11.0012 27.517 11.027 25.0995 11.027 22.7327L11.0309 9.77861ZM22.3014 12.9993C21.6403 12.8531 20.1591 12.9252 19.4283 12.9251L14.2164 12.9261L14.2154 25.4935C14.8643 24.6591 15.8866 23.7888 16.6354 23.0032C16.864 22.7633 17.2909 22.2956 17.527 22.1038C19.0569 22.0201 20.9391 22.2059 22.4029 21.97C27.2456 20.7294 27.11 14.0629 22.3014 12.9993Z" fill="var(--fill-1, #1F2A37)"/>
</g>
</g>
</svg>
