<svg preserveAspectRatio="none" width="100%" height="100%" overflow="visible" style="display: block;" viewBox="0 0 16 16" fill="none" xmlns="http://www.w3.org/2000/svg">
<g id="rabbit">
<path id="Primary" d="M9.85281 3.50078C9.74781 3.27766 9.62531 3.06109 9.48313 2.85547C9.5225 2.81172 9.56406 2.77016 9.60563 2.72859C9.77844 2.55797 9.88781 2.44859 9.93594 2.40047C9.94031 2.40047 10.2203 2.40047 10.7803 2.40047H11.0844C11.1063 2.55359 11.1478 2.84672 11.2091 3.27766C11.3009 3.92516 11.2309 4.57703 11.0188 5.17641C11.0538 5.20266 11.0866 5.22891 11.1216 5.25516L12.4144 6.30953L12.5434 6.41453V8.87547H10.4434V9.07453L13.1844 13.0536L13.5628 13.6027H11.0122L10.9072 13.4517L10.0934 12.2705V13.6027H4.49344V12.813C4.32938 12.872 4.15219 12.9027 3.96844 12.9027C3.09781 12.9027 2.39344 12.1983 2.39344 11.3277C2.39344 10.457 3.09781 9.75266 3.96844 9.75266C4.27906 9.75266 4.57 9.84234 4.81281 9.99766C5.33344 8.68734 6.44469 7.67672 7.81844 7.29391V6.47141C7.05281 5.60297 6.69844 4.43703 6.86469 3.27984C6.92594 2.84891 6.9675 2.55578 6.98938 2.40266C7.125 2.40266 7.45969 2.40266 7.99344 2.40266H8.13781C8.18594 2.44859 8.29531 2.55797 8.46813 2.73078C9.01281 3.27109 9.365 3.95141 9.505 4.67766C9.81125 4.67984 10.1131 4.73453 10.3953 4.84172C10.5441 4.37578 10.59 3.87703 10.5178 3.38047L10.4784 3.10266H10.2269L10.1022 3.22734C10.0147 3.31484 9.93156 3.40672 9.85719 3.50297L9.85281 3.50078ZM4.59406 10.7152C4.43438 10.5511 4.21344 10.4505 3.96844 10.4505C3.485 10.4505 3.09344 10.842 3.09344 11.3255C3.09344 11.8089 3.485 12.2005 3.96844 12.2005C4.16531 12.2005 4.34688 12.1348 4.49344 12.0255V11.6755C4.49344 11.3452 4.52844 11.0236 4.59406 10.7152ZM10.0934 6.25047C10.1863 6.25047 10.2753 6.28734 10.3409 6.35298C10.4066 6.41862 10.4434 6.50764 10.4434 6.60047C10.4434 6.69329 10.4066 6.78232 10.3409 6.84796C10.2753 6.91359 10.1863 6.95047 10.0934 6.95047C10.0006 6.95047 9.91159 6.91359 9.84595 6.84796C9.78031 6.78232 9.74344 6.69329 9.74344 6.60047C9.74344 6.50764 9.78031 6.41862 9.84595 6.35298C9.91159 6.28734 10.0006 6.25047 10.0934 6.25047ZM6.24344 12.9005H9.39344V12.2005H7.45531C7.73313 11.9073 8.2975 11.3123 9.15063 10.4111L9.44813 10.0983L9.69313 10.4548L11.3797 12.9027H12.2306L9.80688 9.38297L9.74563 9.29328V8.17766H11.8456V6.74922L10.6819 5.79984C10.3472 5.52641 9.92719 5.37766 9.49406 5.37766C9.42188 5.37766 9.35188 5.38641 9.28406 5.39953L8.89688 5.48484L8.85969 5.09109C8.79406 4.39766 8.49 3.73484 7.97813 3.22734L7.85344 3.10266H7.60188L7.5625 3.38047C7.42031 4.37359 7.74188 5.37328 8.42656 6.09734L8.52281 6.20016L8.52063 6.34234V6.35109V7.85391L8.24281 7.91297C6.49938 8.27828 5.19344 9.82484 5.19344 11.6755V12.9005H6.24344ZM9.36281 11.2052L9.085 11.5005H9.56625L9.36281 11.2052Z" fill="var(--fill-0, #374151)"/>
</g>
</svg>
