<svg preserveAspectRatio="none" width="100%" height="100%" overflow="visible" style="display: block;" viewBox="0 0 16.9156 16.9125" fill="none" xmlns="http://www.w3.org/2000/svg">
<path id="Primary" d="M14.5594 0.353125L14.2063 0L13.5 0.70625C13.6875 0.89375 14.0188 1.225 14.5 1.70625L12.7063 3.5C9.12188 -0.0843749 11.0688 1.8625 10.2063 1L9.5 1.70625C9.76875 1.975 9.9375 2.14375 10 2.20625L2.35313 9.85313L2.20625 10V14L0.353125 15.8531L0 16.2062L0.70625 16.9125L1.05938 16.5594L2.9125 14.7063H6.9125L7.05937 14.5594L14.7063 6.9125C14.7688 6.975 14.9375 7.14375 15.2062 7.4125L15.9156 6.70625C15.3312 6.12188 14.1875 4.97813 13.4156 4.20625L15.2094 2.4125C15.6906 2.89375 16.0219 3.225 16.2094 3.4125L16.9156 2.70625C16.6 2.39062 14.8469 0.6375 14.5625 0.353125H14.5594ZM14 6.20625L6.5 13.7063H3.20625V10.4125L4.70625 8.9125C5.60313 9.80938 6.10313 10.3094 6.20625 10.4125L6.91563 9.70625C6.8125 9.60313 6.3125 9.10313 5.41563 8.20625L7.70938 5.9125C8.60625 6.80938 9.10625 7.30938 9.20938 7.4125L9.91562 6.70625C9.8125 6.60313 9.3125 6.10313 8.41562 5.20625L10.7094 2.9125C11.8063 4.00937 12.9031 5.10625 14.0031 6.20625H14Z" fill="var(--fill-0, black)"/>
</svg>
