<svg width="79.375" height="21.875" viewBox="0 0 79.375 21.875" fill="none" xmlns="http://www.w3.org/2000/svg">
<g id="app-store 1" clip-path="url(#clip0_0_180)">
<path id="Vector" d="M61.3831 21.8513L62.4569 18.6597L59.8676 16.9234H63.0394L64.1731 13.501L65.3275 16.9234H68.4787L65.8894 18.6597L66.9831 21.8513L64.1731 19.8139L61.3831 21.8513Z" fill="var(--fill-0, #053E4A)"/>
<path id="Vector_2" d="M51.723 21.8513L52.797 18.6597L50.2075 16.9234H53.3791L54.5131 13.501L55.6673 16.9234H58.8188L56.2294 18.6597L57.3234 21.8513L54.5131 19.8139L51.723 21.8513Z" fill="var(--fill-0, #053E4A)"/>
<path id="Vector_3" d="M42.0636 21.8513L43.1375 18.6597L40.5481 16.9234H43.7196L44.8537 13.501L46.0079 16.9234H49.1593L46.5699 18.6597L47.6639 21.8513L44.8537 19.8139L42.0636 21.8513Z" fill="var(--fill-0, #053E4A)"/>
<path id="Vector_4" d="M32.4036 21.8513L33.4774 18.6597L30.8881 16.9234H34.0596L35.1937 13.501L36.3479 16.9234H39.4993L36.9099 18.6597L38.0039 21.8513L35.1937 19.8139L32.4036 21.8513Z" fill="var(--fill-0, #053E4A)"/>
<path id="Vector_5" d="M22.7441 21.8513L23.8181 18.6597L21.2286 16.9234H24.4001L25.5343 13.501L26.6884 16.9234H29.8399L27.2505 18.6597L28.3445 21.8513L25.5343 19.8139L22.7441 21.8513Z" fill="var(--fill-0, #053E4A)"/>
<path id="Vector_6" d="M7.67096 8.02188C8.39865 8.02188 9.78721 7.01425 11.2177 7.16431C11.8165 7.18181 13.5213 7.4 14.6198 9.00388C14.5313 9.05656 12.5893 10.1982 12.6111 12.5421C12.6354 15.3532 15.0693 16.2816 15.099 16.2915C15.0843 16.3574 14.7178 17.6323 13.8038 18.927C13.0418 20.0672 12.244 21.1816 10.9754 21.2024C9.74327 21.2307 9.32852 20.478 7.91452 20.4779C6.48709 20.4779 6.04578 21.1813 4.86398 21.2305C3.65597 21.2754 2.73269 20.0139 1.94222 18.8849C0.363426 16.5769 -0.86517 12.3832 0.782555 9.52944C1.5806 8.1305 3.03767 7.22919 4.59481 7.204C5.80283 7.17994 6.92765 8.02181 7.67096 8.02188ZM34.4898 2.69348C35.3095 2.6935 35.9963 3.01829 36.5449 3.6676C37.0935 4.31781 37.3676 5.17176 37.3676 6.23047C37.3676 7.41419 37.0483 8.34987 36.4081 9.0375C35.8354 9.6485 35.1235 9.95363 34.275 9.95363C33.3582 9.95356 32.6991 9.62331 32.2981 8.96544H32.2706V12.6312H30.7227V5.12756C30.7227 4.38341 30.7043 3.62067 30.666 2.83691H32.0258L32.1125 3.93982H32.1418C32.6568 3.1088 33.4404 2.69348 34.4898 2.69348ZM42.4946 2.69348C43.3145 2.69348 44 3.0184 44.5496 3.6676C45.0985 4.31781 45.3718 5.17172 45.3718 6.23047C45.3718 7.41419 45.0532 8.34987 44.4123 9.0375C43.8396 9.6485 43.1288 9.95363 42.2785 9.95363C41.3626 9.95356 40.7044 9.62331 40.3035 8.96544H40.2753V12.6312H38.7287V5.12756C38.7287 4.38341 38.7089 3.62067 38.672 2.83691H40.0312L40.1179 3.93982H40.1472C40.6606 3.10886 41.4433 2.69354 42.4946 2.69348ZM63.7745 2.69348C64.7951 2.69348 65.6176 3.03271 66.2376 3.71033C66.8307 4.37026 67.1263 5.21837 67.1263 6.25912C67.1263 7.32894 66.8213 8.20706 66.2107 8.89462C65.5695 9.60175 64.7195 9.95363 63.6607 9.95363C62.6382 9.95356 61.8258 9.61456 61.219 8.93675C60.6125 8.25938 60.3101 7.40469 60.3101 6.37513C60.3101 5.29492 60.6216 4.41187 61.2476 3.72559C61.8719 3.03692 62.7145 2.69353 63.7745 2.69348ZM51.7597 0C52.6382 2.38778e-05 53.3687 0.154263 53.9503 0.458984L53.5639 1.71936C53.0195 1.42416 52.4045 1.27564 51.7158 1.27564C51.1713 1.27564 50.7471 1.40885 50.442 1.67664C50.1856 1.91496 50.0562 2.20686 50.0562 2.55005C50.0563 2.93127 50.2027 3.24732 50.4988 3.49426C50.7555 3.72376 51.2238 3.97211 51.9025 4.24011C52.7329 4.57444 53.3428 4.9654 53.7355 5.41321C54.1269 5.86308 54.3231 6.42163 54.3232 7.08925C54.3232 7.91031 54.0387 8.57813 53.465 9.09425C52.8363 9.65813 51.9607 9.93894 50.8369 9.93894C49.7988 9.93894 48.9651 9.73856 48.3345 9.33775L48.6927 8.04931C49.3723 8.46006 50.1171 8.66456 50.929 8.66456C51.5117 8.66456 51.9652 8.53313 52.2907 8.27088C52.6145 8.0075 52.776 7.65544 52.776 7.21619C52.776 6.825 52.6428 6.49369 52.3762 6.22681C52.1093 5.95837 51.6633 5.71028 51.0426 5.48034C49.3526 4.84872 48.509 3.9259 48.509 2.71179C48.509 1.91805 48.8038 1.26759 49.3965 0.761719C49.9876 0.254474 50.776 0 51.7597 0ZM57.7314 2.83569H59.4355V3.99597H57.7314V7.37612C57.7315 8.235 58.0319 8.66444 58.6341 8.66456C58.9091 8.66456 59.1387 8.64081 59.3201 8.59375L59.3629 9.76744C59.0593 9.88206 58.6572 9.93894 58.1611 9.93894C57.5498 9.93894 57.0718 9.75331 56.7286 9.38169C56.3855 9.00906 56.2135 8.38287 56.2135 7.5055V3.99658H55.1966V2.83569H56.2135V1.56189L57.7314 1.10291V2.83569ZM76.1757 2.67944C77.1782 2.67944 77.9388 3.05132 78.4545 3.79577C78.8632 4.38797 79.0676 5.11791 79.0676 5.98694C79.0676 6.26456 79.0488 6.49725 79.012 6.68881H74.3732C74.3907 7.37619 74.6157 7.90219 75.0451 8.26537C75.4357 8.59006 75.9426 8.75063 76.5638 8.75063C77.2488 8.75063 77.8751 8.64112 78.4395 8.42162L78.682 9.49588C78.0238 9.78219 77.2457 9.92675 76.347 9.92675C75.2695 9.92675 74.4207 9.60856 73.8057 8.97337C73.1913 8.33931 72.882 7.48556 72.882 6.41662C72.882 5.3675 73.1688 4.49329 73.7426 3.79577C74.3426 3.05131 75.1545 2.67945 76.1757 2.67944ZM29.3763 9.79738H27.7296L26.8269 6.96106H23.6927L22.8321 9.79738H21.2287L24.3378 0.144653H26.255L29.3763 9.79738ZM71.7657 2.69287C71.9082 2.69287 72.0376 2.70263 72.1513 2.72034V4.19617C71.9988 4.16898 71.837 4.15345 71.6657 4.15344C71.1226 4.15344 70.7007 4.3601 70.4038 4.7699C70.1476 5.13284 70.0182 5.59136 70.0182 6.14441V9.79613H68.4726L68.4857 5.02807C68.4857 4.22587 68.4657 3.49534 68.4288 2.83631H69.7757L69.832 4.1687H69.8738C70.0363 3.71059 70.2957 3.34244 70.6476 3.06579C70.9907 2.81771 71.3651 2.69287 71.7657 2.69287ZM63.7182 3.82446C63.0963 3.82446 62.6238 4.10215 62.2999 4.65759C62.0223 5.11747 61.8861 5.67761 61.8861 6.33913C61.8861 6.98056 62.0224 7.53038 62.2999 7.9895C62.6332 8.5445 63.1013 8.822 63.7051 8.822C64.2951 8.822 64.7588 8.54038 65.092 7.97544C65.3782 7.50631 65.5213 6.95112 65.5213 6.30919C65.5213 5.66762 65.3832 5.11747 65.1057 4.65759C64.7826 4.10238 64.3188 3.82455 63.7182 3.82446ZM33.9887 3.92395C33.6061 3.92395 33.2588 4.05218 32.9505 4.30359C32.64 4.55854 32.4363 4.88933 32.3414 5.30029C32.2934 5.49162 32.2706 5.64804 32.2706 5.77149V6.93237C32.2706 7.43831 32.4246 7.86531 32.7338 8.21288C33.0452 8.563 33.4492 8.73594 33.9454 8.73594C34.528 8.73587 34.9818 8.51275 35.3053 8.06337C35.631 7.61431 35.7923 7.02281 35.7923 6.28725C35.7923 5.61 35.6396 5.05149 35.3346 4.61182C35 4.15393 34.5506 3.92396 33.9887 3.92395ZM41.9935 3.92395C41.6111 3.92395 41.2638 4.05218 40.9546 4.30359C40.6446 4.55851 40.4423 4.88945 40.3474 5.30029C40.298 5.49165 40.2753 5.64803 40.2753 5.77149V6.93237C40.2754 7.43844 40.4294 7.86525 40.7398 8.21288C41.0503 8.563 41.4524 8.73594 41.9508 8.73594C42.5321 8.73594 42.9868 8.51281 43.3106 8.06337C43.634 7.61431 43.7983 7.02287 43.7983 6.28725C43.7983 5.60989 43.645 5.05153 43.3387 4.61182C43.0043 4.15397 42.5565 3.92399 41.9935 3.92395ZM11.2318 2.67212C11.3546 3.76938 10.9183 4.85203 10.2826 5.64698C9.61921 6.42925 8.5589 7.02787 7.5239 6.95131C7.38815 5.89559 7.91346 4.77227 8.49984 4.08691C9.16215 3.30862 10.312 2.71292 11.2318 2.67212ZM25.2247 1.43372C25.1288 1.84469 24.9755 2.45037 24.7657 3.25134L23.9637 5.77149H26.5559L25.7405 3.25134C25.6528 2.99465 25.4915 2.38759 25.2534 1.43372H25.2247ZM76.0607 3.75305C75.5563 3.75305 75.1445 3.96376 74.8301 4.38354C74.572 4.71791 74.4188 5.11815 74.3732 5.58594H77.5926L77.592 5.41748C77.5776 5.03076 77.4776 4.69021 77.2938 4.39758C77.0263 3.96809 76.6138 3.75313 76.0607 3.75305Z" fill="var(--fill-0, #053E4A)"/>
</g>
<defs>
<clipPath id="clip0_0_180">
<rect width="79.375" height="21.875" fill="white"/>
</clipPath>
</defs>
</svg>
