<svg width="84.375" height="21.875" viewBox="0 0 84.375 21.875" fill="none" xmlns="http://www.w3.org/2000/svg">
<g id="google-play 1" clip-path="url(#clip0_0_82)">
<path id="Vector" d="M42.12 3.40686C40.4166 3.40686 39.0283 4.70175 39.0283 6.48681C39.0283 8.26019 40.4166 9.56681 42.12 9.56681C43.8232 9.56681 45.2117 8.26019 45.2117 6.48681C45.2115 4.70175 43.8232 3.40686 42.12 3.40686ZM42.12 8.35338C41.1867 8.35338 40.3816 7.58344 40.3816 6.48663C40.3816 5.37829 41.1867 4.61986 42.12 4.61986C43.0533 4.61986 43.8582 5.37808 43.8582 6.48663C43.8582 7.58344 43.0533 8.35338 42.12 8.35338ZM35.3753 3.40686C33.6719 3.40686 32.2836 4.70175 32.2836 6.48681C32.2836 8.26019 33.6719 9.56681 35.3753 9.56681C37.0788 9.56681 38.467 8.26019 38.467 6.48681C38.467 4.70175 37.0788 3.40686 35.3753 3.40686ZM35.3753 8.35338C34.4421 8.35338 33.637 7.58344 33.637 6.48663C33.637 5.37829 34.4418 4.61986 35.3753 4.61986C36.3086 4.61986 37.1137 5.37808 37.1137 6.48663C37.1137 7.58344 36.3086 8.35338 35.3753 8.35338ZM27.3524 4.35186V5.65848H30.479C30.3857 6.39344 30.1407 6.93013 29.7673 7.3035C29.3123 7.7585 28.6006 8.26019 27.3522 8.26019C25.4272 8.26019 23.9223 6.70862 23.9223 4.78341C23.9223 2.85823 25.4272 1.30684 27.3522 1.30684C28.3905 1.30684 29.149 1.71516 29.7089 2.24011L30.6307 1.31835C29.849 0.571646 28.8106 0 27.3522 0C24.7155 0 22.4988 2.14672 22.4988 4.78341C22.4988 7.42013 24.7155 9.56681 27.3522 9.56681C28.7757 9.56681 29.849 9.10006 30.6888 8.225C31.5522 7.36169 31.8207 6.14846 31.8207 5.16827C31.8207 4.86485 31.7974 4.58489 31.7505 4.35163L27.3524 4.35186ZM60.1635 5.36679C59.9067 4.67851 59.1251 3.40686 57.5268 3.40686C55.9402 3.40686 54.6218 4.65527 54.6218 6.48681C54.6218 8.2135 55.9285 9.56681 57.6786 9.56681C59.0901 9.56681 59.907 8.7035 60.2452 8.20175L59.1952 7.50175C58.8453 8.015 58.3668 8.35338 57.6786 8.35338C56.9901 8.35338 56.5003 8.03844 56.1852 7.42013L60.3035 5.7169L60.1635 5.36679ZM55.9634 6.39344C55.9285 5.20346 56.885 4.59684 57.5732 4.59684C58.1099 4.59684 58.565 4.86508 58.7165 5.25016L55.9634 6.39344ZM52.615 9.38006H53.9683V0.326657H52.615V9.38006ZM50.3983 4.09513H50.3517C50.0482 3.73351 49.4648 3.40686 48.7299 3.40686C47.19 3.40686 45.7783 4.76018 45.7783 6.49856C45.7783 8.22525 47.19 9.56706 48.7299 9.56706C49.4648 9.56706 50.0482 9.24037 50.3517 8.86706H50.3983V9.31031C50.3983 10.4888 49.7685 11.1187 48.7533 11.1187C47.9252 11.1187 47.4118 10.5237 47.2017 10.0221L46.0233 10.5121C46.3617 11.3287 47.26 12.3321 48.7533 12.3321C50.3402 12.3321 51.6817 11.3988 51.6817 9.12375V3.59364H50.3983V4.09513ZM48.8467 8.35338C47.9135 8.35338 47.1316 7.57169 47.1316 6.49837C47.1316 5.41348 47.9133 4.62009 48.8467 4.62009C49.7685 4.62009 50.4917 5.41348 50.4917 6.49837C50.4917 7.57169 49.7685 8.35338 48.8467 8.35338ZM66.5032 0.326881H63.265V9.38006H64.6163V5.95016H66.5032C68.0007 5.95016 69.4732 4.86596 69.4732 3.13863C69.4732 1.4113 68.0007 0.326881 66.5032 0.326881ZM66.5375 4.69024H64.6157V1.58702H66.5375C67.5482 1.58702 68.1213 2.42357 68.1213 3.13863C68.1219 3.84019 67.5482 4.69024 66.5375 4.69024ZM74.8888 3.39004C73.91 3.39004 72.8969 3.82093 72.4775 4.77611L73.6775 5.27693C73.9338 4.77611 74.4113 4.613 74.9119 4.613C75.6107 4.613 76.3213 5.03239 76.3332 5.77776V5.87094C76.0882 5.73107 75.5644 5.52148 74.9238 5.52148C73.6307 5.52148 72.315 6.23189 72.315 7.55975C72.315 8.771 73.3744 9.55131 74.5625 9.55131C75.4713 9.55131 75.9719 9.14369 76.2863 8.66606H76.3332V9.365H77.6375V5.89417C77.6375 4.28701 76.4375 3.39004 74.8888 3.39004ZM74.7257 8.35181C74.2832 8.35181 73.6657 8.1305 73.6657 7.58319C73.6657 6.88431 74.4344 6.6165 75.0982 6.6165C75.6925 6.6165 75.9719 6.74469 76.3332 6.9195C76.2282 7.75781 75.5063 8.35181 74.7257 8.35181ZM82.3894 3.58811L80.8407 7.51325H80.7938L79.1869 3.58811H77.7307L80.1419 9.07394L78.7675 12.1254H80.1769L83.8919 3.58811H82.3894ZM70.2182 9.38006H71.5694V0.326881H70.2182V9.38006Z" fill="var(--fill-0, #053E4A)"/>
<path id="Vector_2" d="M0.334843 3.4409C0.124156 3.66354 0 4.00923 0 4.4576V20.4601C0 20.9083 0.124377 21.254 0.334843 21.4768L0.388179 21.5291L9.35238 12.5646V12.4589V12.3531L0.388179 3.38867L0.334843 3.4409Z" fill="var(--fill-0, #5BC8F3)"/>
<path id="Vector_3" d="M12.3403 15.5549L9.35242 12.5656V12.4598V12.354L12.3412 9.36523L12.4087 9.40348L15.949 11.415C16.9602 11.9895 16.9602 12.9299 15.949 13.5044L12.4087 15.5159L12.3403 15.5549Z" fill="url(#paint0_linear_0_82)"/>
<path id="Vector_4" d="M12.4089 15.5172L9.35281 12.4609L0.335083 21.4789C0.6686 21.8316 1.21877 21.8755 1.83867 21.5231L12.4089 15.5172Z" fill="url(#paint1_linear_0_82)"/>
<path id="Vector_5" d="M12.4089 9.40352L1.83867 3.39761C1.21877 3.04528 0.668375 3.08909 0.335083 3.44186L9.35281 12.4598L12.4089 9.40352Z" fill="url(#paint2_linear_0_82)"/>
<path id="Vector_6" d="M62.1301 21.8513L63.2037 18.6597L60.6146 16.9234H63.7862L64.92 13.501L66.0744 16.9234H69.2256L66.6362 18.6597L67.7306 21.8513L64.92 19.8139L62.1301 21.8513Z" fill="var(--fill-0, #053E4A)"/>
<path id="Vector_7" d="M52.4701 21.8513L53.544 18.6597L50.9546 16.9234H54.1262L55.2603 13.501L56.4145 16.9234H59.5659L56.9765 18.6597L58.0705 21.8513L55.2603 19.8139L52.4701 21.8513Z" fill="var(--fill-0, #053E4A)"/>
<path id="Vector_8" d="M42.8107 21.8513L43.8845 18.6597L41.2952 16.9234H44.4667L45.6008 13.501L46.755 16.9234H49.9064L47.317 18.6597L48.411 21.8513L45.6008 19.8139L42.8107 21.8513Z" fill="var(--fill-0, #053E4A)"/>
<path id="Vector_9" d="M33.1506 21.8513L34.2246 18.6597L31.6351 16.9234H34.8066L35.9408 13.501L37.0949 16.9234H40.2464L37.657 18.6597L38.7509 21.8513L35.9408 19.8139L33.1506 21.8513Z" fill="var(--fill-0, #053E4A)"/>
<path id="Vector_10" d="M23.4912 21.8513L24.5651 18.6597L21.9757 16.9234H25.1473L26.2813 13.501L27.4355 16.9234H30.587L27.9976 18.6597L29.0916 21.8513L26.2813 19.8139L23.4912 21.8513Z" fill="var(--fill-0, #053E4A)"/>
</g>
<defs>
<linearGradient id="paint0_linear_0_82" x1="15.2916" y1="12.46" x2="-2.21667" y2="12.46" gradientUnits="userSpaceOnUse">
<stop stop-color="#FFDF00"/>
<stop offset="0.4087" stop-color="#FBBC0E"/>
<stop offset="0.7754" stop-color="#F9A418"/>
<stop offset="1" stop-color="#F89B1C"/>
</linearGradient>
<linearGradient id="paint1_linear_0_82" x1="10.7482" y1="14.1215" x2="-5.71911" y2="30.5889" gradientUnits="userSpaceOnUse">
<stop stop-color="#EE4447"/>
<stop offset="1" stop-color="#C5166C"/>
</linearGradient>
<linearGradient id="paint2_linear_0_82" x1="-5.79248" y1="-5.74162" x2="7.65269" y2="7.70352" gradientUnits="userSpaceOnUse">
<stop stop-color="#269E6F"/>
<stop offset="0.0509" stop-color="#2BA06F"/>
<stop offset="0.4663" stop-color="#53B26B"/>
<stop offset="0.7971" stop-color="#6BBD69"/>
<stop offset="1" stop-color="#74C168"/>
</linearGradient>
<clipPath id="clip0_0_82">
<rect width="84.375" height="21.875" fill="white"/>
</clipPath>
</defs>
</svg>
